<?xml version="1.0" encoding="us-ascii" standalone="no"?><svg xmlns="http://www.w3.org/2000/svg" xmlns:xlink="http://www.w3.org/1999/xlink" contentStyleType="text/css" height="756px" preserveAspectRatio="none" style="width:1102px;height:756px;background:#FFFFFF;" version="1.1" viewBox="0 0 1102 756" width="1102px" zoomAndPan="magnify"><defs/><g><!--class BaseEntity--><g id="elem_BaseEntity"><rect codeLine="7" fill="#FFFFFF" height="100.8281" id="BaseEntity" rx="2.5" ry="2.5" style="stroke:#000000;stroke-width:0.5;" width="198" x="477" y="15.5"/><ellipse cx="538.25" cy="31.5" fill="#A9DCDF" rx="11" ry="11" style="stroke:#181818;stroke-width:1.0;"/><path d="M540.4375,33.2656 L536.2969,33.2656 L535.875,34.2969 L536.2969,34.2969 Q536.9063,34.2969 537.1719,34.5313 Q537.4375,34.7656 537.4375,35.1563 Q537.4375,35.5313 537.1719,35.7656 Q536.9063,36 536.2969,36 L534,36 Q533.3906,36 533.1406,35.7656 Q532.875,35.5313 532.875,35.1406 Q532.875,34.7656 533.1563,34.5313 Q533.4219,34.2813 534.0469,34.2969 L536.7188,27.6406 L535.6094,27.6406 Q535,27.6406 534.7344,27.4063 Q534.4688,27.1719 534.4688,26.7813 Q534.4688,26.4063 534.7344,26.1719 Q535,25.9375 535.6094,25.9375 L539.2813,25.9375 L542.6719,34.2969 Q543.2656,34.2969 543.4531,34.4375 Q543.8438,34.7031 543.8438,35.1563 Q543.8438,35.5313 543.5781,35.7656 Q543.3281,36 542.7188,36 L540.4219,36 Q539.8125,36 539.5469,35.7656 Q539.2813,35.5313 539.2813,35.1406 Q539.2813,34.7656 539.5469,34.5313 Q539.8125,34.2969 540.4219,34.2969 L540.8438,34.2969 L540.4375,33.2656 Z M539.7188,31.5625 L538.3594,28.1875 L536.9844,31.5625 L539.7188,31.5625 Z " fill="#000000"/><text fill="#000000" font-family="sans-serif" font-size="14" font-style="italic" lengthAdjust="spacing" textLength="67" x="558.75" y="37.2285">BaseEntity</text><line style="stroke:#000000;stroke-width:0.5;" x1="478" x2="674" y1="47.5" y2="47.5"/><text fill="#000000" font-family="sans-serif" font-size="14" lengthAdjust="spacing" textLength="46" x="483" y="66.0332">+Id : int</text><text fill="#000000" font-family="sans-serif" font-size="14" lengthAdjust="spacing" textLength="165" x="483" y="83.6426">+DateCreation : DateTime</text><text fill="#000000" font-family="sans-serif" font-size="14" lengthAdjust="spacing" textLength="186" x="483" y="101.252">+DateModification : DateTime</text><line style="stroke:#000000;stroke-width:0.5;" x1="478" x2="674" y1="108.3281" y2="108.3281"/></g><!--class RoleUser--><g id="elem_RoleUser"><rect codeLine="14" fill="#FFFFFF" height="118.4375" id="RoleUser" rx="2.5" ry="2.5" style="stroke:#000000;stroke-width:0.5;" width="131" x="710.5" y="7"/><ellipse cx="743.95" cy="23" fill="#EB937F" rx="11" ry="11" style="stroke:#181818;stroke-width:1.0;"/><path d="M742.8094,23.7969 L742.8094,26.2969 L747.1375,26.2969 L747.1375,25.375 Q747.1375,24.7656 747.3719,24.5 Q747.6219,24.2344 747.9969,24.2344 Q748.3719,24.2344 748.6063,24.5 Q748.8406,24.7656 748.8406,25.375 L748.8406,28 L740.8406,28 Q740.2156,28 739.95,27.7656 Q739.7,27.5313 739.7,27.1406 Q739.7,26.7656 739.9656,26.5313 Q740.2313,26.2969 740.8406,26.2969 L741.1063,26.2969 L741.1063,19.6406 L740.8406,19.6406 Q740.2156,19.6406 739.95,19.4063 Q739.7,19.1719 739.7,18.7813 Q739.7,18.4063 739.95,18.1719 Q740.2156,17.9375 740.8406,17.9375 L748.4656,17.9375 L748.4656,20.5313 Q748.4656,21.1406 748.2313,21.4063 Q748.0125,21.6563 747.6219,21.6563 Q747.2469,21.6563 747.0125,21.4063 Q746.7781,21.1406 746.7781,20.5313 L746.7781,19.6406 L742.8094,19.6406 L742.8094,22.0938 L744.2938,22.0938 Q744.2938,21.4375 744.4188,21.25 Q744.6844,20.8438 745.1531,20.8438 Q745.5281,20.8438 745.7625,21.1094 Q745.9969,21.3594 745.9969,21.9688 L745.9969,23.9375 Q745.9969,24.4844 745.8719,24.6719 Q745.6063,25.0625 745.1531,25.0625 Q744.6844,25.0625 744.4188,24.6563 Q744.2938,24.4688 744.2938,23.7969 L742.8094,23.7969 Z " fill="#000000"/><text fill="#000000" font-family="sans-serif" font-size="14" lengthAdjust="spacing" textLength="58" x="762.05" y="28.7285">RoleUser</text><line style="stroke:#000000;stroke-width:0.5;" x1="711.5" x2="840.5" y1="39" y2="39"/><text fill="#000000" font-family="sans-serif" font-size="14" lengthAdjust="spacing" textLength="119" x="716.5" y="57.5332">ADMINISTRATEUR</text><text fill="#000000" font-family="sans-serif" font-size="14" lengthAdjust="spacing" textLength="101" x="716.5" y="75.1426">RESPONSABLE</text><text fill="#000000" font-family="sans-serif" font-size="14" lengthAdjust="spacing" textLength="80" x="716.5" y="92.752">TECHNICIEN</text><text fill="#000000" font-family="sans-serif" font-size="14" lengthAdjust="spacing" textLength="87" x="716.5" y="110.3613">UTILISATEUR</text><line style="stroke:#000000;stroke-width:0.5;" x1="711.5" x2="840.5" y1="117.4375" y2="117.4375"/></g><!--class User--><g id="elem_User"><rect codeLine="23" fill="#FFFFFF" height="171.2656" id="User" rx="2.5" ry="2.5" style="stroke:#000000;stroke-width:0.5;" width="179" x="561.5" y="186"/><ellipse cx="632.25" cy="202" fill="#ADD1B2" rx="11" ry="11" style="stroke:#181818;stroke-width:1.0;"/><path d="M635.0156,197.875 Q635.1719,197.6563 635.3594,197.5469 Q635.5469,197.4375 635.7656,197.4375 Q636.1406,197.4375 636.375,197.7031 Q636.6094,197.9531 636.6094,198.5625 L636.6094,200.0156 Q636.6094,200.625 636.375,200.8906 Q636.1406,201.1563 635.7656,201.1563 Q635.4219,201.1563 635.2188,200.9531 Q635.0156,200.7656 634.9063,200.25 Q634.8594,199.8906 634.6719,199.7031 Q634.3438,199.3281 633.7344,199.1094 Q633.125,198.8906 632.5,198.8906 Q631.7344,198.8906 631.0938,199.2188 Q630.4688,199.5469 629.9688,200.2969 Q629.4844,201.0469 629.4844,202.0781 L629.4844,203.1719 Q629.4844,204.4063 630.375,205.2344 Q631.2656,206.0469 632.8594,206.0469 Q633.7969,206.0469 634.4531,205.7969 Q634.8438,205.6406 635.2656,205.2031 Q635.5313,204.9375 635.6719,204.8594 Q635.8281,204.7813 636.0313,204.7813 Q636.3594,204.7813 636.6094,205.0469 Q636.875,205.2969 636.875,205.6406 Q636.875,205.9844 636.5313,206.3906 Q636.0313,206.9688 635.2344,207.2969 Q634.1563,207.75 632.8594,207.75 Q631.3438,207.75 630.1406,207.125 Q629.1563,206.625 628.4688,205.5625 Q627.7813,204.4844 627.7813,203.2031 L627.7813,202.0469 Q627.7813,200.7188 628.3906,199.5781 Q629.0156,198.4219 630.1094,197.8125 Q631.2031,197.1875 632.4375,197.1875 Q633.1719,197.1875 633.8125,197.3594 Q634.4688,197.5156 635.0156,197.875 Z " fill="#000000"/><text fill="#000000" font-family="sans-serif" font-size="14" lengthAdjust="spacing" textLength="29" x="652.75" y="207.7285">User</text><line style="stroke:#000000;stroke-width:0.5;" x1="562.5" x2="739.5" y1="218" y2="218"/><text fill="#000000" font-family="sans-serif" font-size="14" lengthAdjust="spacing" textLength="83" x="567.5" y="236.5332">+Nom : string</text><text fill="#000000" font-family="sans-serif" font-size="14" lengthAdjust="spacing" textLength="104" x="567.5" y="254.1426">+Prenom : string</text><text fill="#000000" font-family="sans-serif" font-size="14" lengthAdjust="spacing" textLength="89" x="567.5" y="271.752">+Email : string</text><text fill="#000000" font-family="sans-serif" font-size="14" lengthAdjust="spacing" textLength="167" x="567.5" y="289.3613">+MotDePasseHash : string</text><text fill="#000000" font-family="sans-serif" font-size="14" lengthAdjust="spacing" textLength="107" x="567.5" y="306.9707">+Role : RoleUser</text><line style="stroke:#000000;stroke-width:1.0;" x1="562.5" x2="739.5" y1="314.0469" y2="314.0469"/><text fill="#000000" font-family="sans-serif" font-size="14" lengthAdjust="spacing" textLength="130" x="567.5" y="332.5801">+DeclarerAnomalie()</text><text fill="#000000" font-family="sans-serif" font-size="14" lengthAdjust="spacing" textLength="142" x="567.5" y="350.1895">+ConsulterHistorique()</text></g><!--class Projet--><g id="elem_Projet"><rect codeLine="34" fill="#FFFFFF" height="118.4375" id="Projet" rx="2.5" ry="2.5" style="stroke:#000000;stroke-width:0.5;" width="161" x="354.5" y="212.5"/><ellipse cx="412.25" cy="228.5" fill="#ADD1B2" rx="11" ry="11" style="stroke:#181818;stroke-width:1.0;"/><path d="M415.0156,224.375 Q415.1719,224.1563 415.3594,224.0469 Q415.5469,223.9375 415.7656,223.9375 Q416.1406,223.9375 416.375,224.2031 Q416.6094,224.4531 416.6094,225.0625 L416.6094,226.5156 Q416.6094,227.125 416.375,227.3906 Q416.1406,227.6563 415.7656,227.6563 Q415.4219,227.6563 415.2188,227.4531 Q415.0156,227.2656 414.9063,226.75 Q414.8594,226.3906 414.6719,226.2031 Q414.3438,225.8281 413.7344,225.6094 Q413.125,225.3906 412.5,225.3906 Q411.7344,225.3906 411.0938,225.7188 Q410.4688,226.0469 409.9688,226.7969 Q409.4844,227.5469 409.4844,228.5781 L409.4844,229.6719 Q409.4844,230.9063 410.375,231.7344 Q411.2656,232.5469 412.8594,232.5469 Q413.7969,232.5469 414.4531,232.2969 Q414.8438,232.1406 415.2656,231.7031 Q415.5313,231.4375 415.6719,231.3594 Q415.8281,231.2813 416.0313,231.2813 Q416.3594,231.2813 416.6094,231.5469 Q416.875,231.7969 416.875,232.1406 Q416.875,232.4844 416.5313,232.8906 Q416.0313,233.4688 415.2344,233.7969 Q414.1563,234.25 412.8594,234.25 Q411.3438,234.25 410.1406,233.625 Q409.1563,233.125 408.4688,232.0625 Q407.7813,230.9844 407.7813,229.7031 L407.7813,228.5469 Q407.7813,227.2188 408.3906,226.0781 Q409.0156,224.9219 410.1094,224.3125 Q411.2031,223.6875 412.4375,223.6875 Q413.1719,223.6875 413.8125,223.8594 Q414.4688,224.0156 415.0156,224.375 Z " fill="#000000"/><text fill="#000000" font-family="sans-serif" font-size="14" lengthAdjust="spacing" textLength="37" x="432.75" y="234.2285">Projet</text><line style="stroke:#000000;stroke-width:0.5;" x1="355.5" x2="514.5" y1="244.5" y2="244.5"/><text fill="#000000" font-family="sans-serif" font-size="14" lengthAdjust="spacing" textLength="83" x="360.5" y="263.0332">+Nom : string</text><text fill="#000000" font-family="sans-serif" font-size="14" lengthAdjust="spacing" textLength="126" x="360.5" y="280.6426">+Description : string</text><text fill="#000000" font-family="sans-serif" font-size="14" lengthAdjust="spacing" textLength="149" x="360.5" y="298.252">+DateDebut : DateTime</text><text fill="#000000" font-family="sans-serif" font-size="14" lengthAdjust="spacing" textLength="131" x="360.5" y="315.8613">+DateFin : DateTime</text><line style="stroke:#000000;stroke-width:0.5;" x1="355.5" x2="514.5" y1="322.9375" y2="322.9375"/></g><!--class Anomalie--><g id="elem_Anomalie"><rect codeLine="41" fill="#FFFFFF" height="136.0469" id="Anomalie" rx="2.5" ry="2.5" style="stroke:#000000;stroke-width:0.5;" width="263" x="308.5" y="435"/><ellipse cx="406.75" cy="451" fill="#ADD1B2" rx="11" ry="11" style="stroke:#181818;stroke-width:1.0;"/><path d="M409.5156,446.875 Q409.6719,446.6563 409.8594,446.5469 Q410.0469,446.4375 410.2656,446.4375 Q410.6406,446.4375 410.875,446.7031 Q411.1094,446.9531 411.1094,447.5625 L411.1094,449.0156 Q411.1094,449.625 410.875,449.8906 Q410.6406,450.1563 410.2656,450.1563 Q409.9219,450.1563 409.7188,449.9531 Q409.5156,449.7656 409.4063,449.25 Q409.3594,448.8906 409.1719,448.7031 Q408.8438,448.3281 408.2344,448.1094 Q407.625,447.8906 407,447.8906 Q406.2344,447.8906 405.5938,448.2188 Q404.9688,448.5469 404.4688,449.2969 Q403.9844,450.0469 403.9844,451.0781 L403.9844,452.1719 Q403.9844,453.4063 404.875,454.2344 Q405.7656,455.0469 407.3594,455.0469 Q408.2969,455.0469 408.9531,454.7969 Q409.3438,454.6406 409.7656,454.2031 Q410.0313,453.9375 410.1719,453.8594 Q410.3281,453.7813 410.5313,453.7813 Q410.8594,453.7813 411.1094,454.0469 Q411.375,454.2969 411.375,454.6406 Q411.375,454.9844 411.0313,455.3906 Q410.5313,455.9688 409.7344,456.2969 Q408.6563,456.75 407.3594,456.75 Q405.8438,456.75 404.6406,456.125 Q403.6563,455.625 402.9688,454.5625 Q402.2813,453.4844 402.2813,452.2031 L402.2813,451.0469 Q402.2813,449.7188 402.8906,448.5781 Q403.5156,447.4219 404.6094,446.8125 Q405.7031,446.1875 406.9375,446.1875 Q407.6719,446.1875 408.3125,446.3594 Q408.9688,446.5156 409.5156,446.875 Z " fill="#000000"/><text fill="#000000" font-family="sans-serif" font-size="14" lengthAdjust="spacing" textLength="58" x="427.25" y="456.7285">Anomalie</text><line style="stroke:#000000;stroke-width:0.5;" x1="309.5" x2="570.5" y1="467" y2="467"/><text fill="#000000" font-family="sans-serif" font-size="14" lengthAdjust="spacing" textLength="84" x="314.5" y="485.5332">+Titre : string</text><text fill="#000000" font-family="sans-serif" font-size="14" lengthAdjust="spacing" textLength="126" x="314.5" y="503.1426">+Description : string</text><text fill="#000000" font-family="sans-serif" font-size="14" lengthAdjust="spacing" textLength="165" x="314.5" y="520.752">+DateCloture : DateTime?</text><line style="stroke:#000000;stroke-width:1.0;" x1="309.5" x2="570.5" y1="527.8281" y2="527.8281"/><text fill="#000000" font-family="sans-serif" font-size="14" lengthAdjust="spacing" textLength="251" x="314.5" y="546.3613">+ChangerStatut(nouveauStatut : Statut)</text><text fill="#000000" font-family="sans-serif" font-size="14" lengthAdjust="spacing" textLength="210" x="314.5" y="563.9707">+AssignerTechnicien(tech : User)</text></g><!--class TypeAnomalie--><g id="elem_TypeAnomalie"><rect codeLine="51" fill="#FFFFFF" height="83.2188" id="TypeAnomalie" rx="2.5" ry="2.5" style="stroke:#000000;stroke-width:0.5;" width="138" x="304" y="658"/><ellipse cx="326.2" cy="674" fill="#ADD1B2" rx="11" ry="11" style="stroke:#181818;stroke-width:1.0;"/><path d="M328.9656,669.875 Q329.1219,669.6563 329.3094,669.5469 Q329.4969,669.4375 329.7156,669.4375 Q330.0906,669.4375 330.325,669.7031 Q330.5594,669.9531 330.5594,670.5625 L330.5594,672.0156 Q330.5594,672.625 330.325,672.8906 Q330.0906,673.1563 329.7156,673.1563 Q329.3719,673.1563 329.1688,672.9531 Q328.9656,672.7656 328.8563,672.25 Q328.8094,671.8906 328.6219,671.7031 Q328.2938,671.3281 327.6844,671.1094 Q327.075,670.8906 326.45,670.8906 Q325.6844,670.8906 325.0438,671.2188 Q324.4188,671.5469 323.9188,672.2969 Q323.4344,673.0469 323.4344,674.0781 L323.4344,675.1719 Q323.4344,676.4063 324.325,677.2344 Q325.2156,678.0469 326.8094,678.0469 Q327.7469,678.0469 328.4031,677.7969 Q328.7938,677.6406 329.2156,677.2031 Q329.4813,676.9375 329.6219,676.8594 Q329.7781,676.7813 329.9813,676.7813 Q330.3094,676.7813 330.5594,677.0469 Q330.825,677.2969 330.825,677.6406 Q330.825,677.9844 330.4813,678.3906 Q329.9813,678.9688 329.1844,679.2969 Q328.1063,679.75 326.8094,679.75 Q325.2938,679.75 324.0906,679.125 Q323.1063,678.625 322.4188,677.5625 Q321.7313,676.4844 321.7313,675.2031 L321.7313,674.0469 Q321.7313,672.7188 322.3406,671.5781 Q322.9656,670.4219 324.0594,669.8125 Q325.1531,669.1875 326.3875,669.1875 Q327.1219,669.1875 327.7625,669.3594 Q328.4188,669.5156 328.9656,669.875 Z " fill="#000000"/><text fill="#000000" font-family="sans-serif" font-size="14" lengthAdjust="spacing" textLength="90" x="341.8" y="679.7285">TypeAnomalie</text><line style="stroke:#000000;stroke-width:0.5;" x1="305" x2="441" y1="690" y2="690"/><text fill="#000000" font-family="sans-serif" font-size="14" lengthAdjust="spacing" textLength="96" x="310" y="708.5332">+Libelle : string</text><text fill="#000000" font-family="sans-serif" font-size="14" lengthAdjust="spacing" textLength="126" x="310" y="726.1426">+Description : string</text><line style="stroke:#000000;stroke-width:0.5;" x1="305" x2="441" y1="733.2188" y2="733.2188"/></g><!--class Priorite--><g id="elem_Priorite"><rect codeLine="56" fill="#FFFFFF" height="100.8281" id="Priorite" rx="2.5" ry="2.5" style="stroke:#000000;stroke-width:0.5;" width="252" x="477" y="649"/><ellipse cx="576.25" cy="665" fill="#ADD1B2" rx="11" ry="11" style="stroke:#181818;stroke-width:1.0;"/><path d="M579.0156,660.875 Q579.1719,660.6563 579.3594,660.5469 Q579.5469,660.4375 579.7656,660.4375 Q580.1406,660.4375 580.375,660.7031 Q580.6094,660.9531 580.6094,661.5625 L580.6094,663.0156 Q580.6094,663.625 580.375,663.8906 Q580.1406,664.1563 579.7656,664.1563 Q579.4219,664.1563 579.2188,663.9531 Q579.0156,663.7656 578.9063,663.25 Q578.8594,662.8906 578.6719,662.7031 Q578.3438,662.3281 577.7344,662.1094 Q577.125,661.8906 576.5,661.8906 Q575.7344,661.8906 575.0938,662.2188 Q574.4688,662.5469 573.9688,663.2969 Q573.4844,664.0469 573.4844,665.0781 L573.4844,666.1719 Q573.4844,667.4063 574.375,668.2344 Q575.2656,669.0469 576.8594,669.0469 Q577.7969,669.0469 578.4531,668.7969 Q578.8438,668.6406 579.2656,668.2031 Q579.5313,667.9375 579.6719,667.8594 Q579.8281,667.7813 580.0313,667.7813 Q580.3594,667.7813 580.6094,668.0469 Q580.875,668.2969 580.875,668.6406 Q580.875,668.9844 580.5313,669.3906 Q580.0313,669.9688 579.2344,670.2969 Q578.1563,670.75 576.8594,670.75 Q575.3438,670.75 574.1406,670.125 Q573.1563,669.625 572.4688,668.5625 Q571.7813,667.4844 571.7813,666.2031 L571.7813,665.0469 Q571.7813,663.7188 572.3906,662.5781 Q573.0156,661.4219 574.1094,660.8125 Q575.2031,660.1875 576.4375,660.1875 Q577.1719,660.1875 577.8125,660.3594 Q578.4688,660.5156 579.0156,660.875 Z " fill="#000000"/><text fill="#000000" font-family="sans-serif" font-size="14" lengthAdjust="spacing" textLength="45" x="596.75" y="670.7285">Priorite</text><line style="stroke:#000000;stroke-width:0.5;" x1="478" x2="728" y1="681" y2="681"/><text fill="#000000" font-family="sans-serif" font-size="14" lengthAdjust="spacing" textLength="139" x="483" y="699.5332">+CodeCouleur : string</text><text fill="#000000" font-family="sans-serif" font-size="14" lengthAdjust="spacing" textLength="78" x="483" y="717.1426">+Niveau : int</text><line style="stroke:#000000;stroke-width:0.5;" x1="478" x2="728" y1="724.2188" y2="724.2188"/><text fill="#000000" font-family="sans-serif" font-size="14" lengthAdjust="spacing" textLength="240" x="483" y="742.752">+Libelle : string (ex: Critique, Majeure)</text></g><!--class Statut--><g id="elem_Statut"><rect codeLine="62" fill="#FFFFFF" height="83.2188" id="Statut" rx="2.5" ry="2.5" style="stroke:#000000;stroke-width:0.5;" width="262" x="7" y="658"/><ellipse cx="115.25" cy="674" fill="#ADD1B2" rx="11" ry="11" style="stroke:#181818;stroke-width:1.0;"/><path d="M118.0156,669.875 Q118.1719,669.6563 118.3594,669.5469 Q118.5469,669.4375 118.7656,669.4375 Q119.1406,669.4375 119.375,669.7031 Q119.6094,669.9531 119.6094,670.5625 L119.6094,672.0156 Q119.6094,672.625 119.375,672.8906 Q119.1406,673.1563 118.7656,673.1563 Q118.4219,673.1563 118.2188,672.9531 Q118.0156,672.7656 117.9063,672.25 Q117.8594,671.8906 117.6719,671.7031 Q117.3438,671.3281 116.7344,671.1094 Q116.125,670.8906 115.5,670.8906 Q114.7344,670.8906 114.0938,671.2188 Q113.4688,671.5469 112.9688,672.2969 Q112.4844,673.0469 112.4844,674.0781 L112.4844,675.1719 Q112.4844,676.4063 113.375,677.2344 Q114.2656,678.0469 115.8594,678.0469 Q116.7969,678.0469 117.4531,677.7969 Q117.8438,677.6406 118.2656,677.2031 Q118.5313,676.9375 118.6719,676.8594 Q118.8281,676.7813 119.0313,676.7813 Q119.3594,676.7813 119.6094,677.0469 Q119.875,677.2969 119.875,677.6406 Q119.875,677.9844 119.5313,678.3906 Q119.0313,678.9688 118.2344,679.2969 Q117.1563,679.75 115.8594,679.75 Q114.3438,679.75 113.1406,679.125 Q112.1563,678.625 111.4688,677.5625 Q110.7813,676.4844 110.7813,675.2031 L110.7813,674.0469 Q110.7813,672.7188 111.3906,671.5781 Q112.0156,670.4219 113.1094,669.8125 Q114.2031,669.1875 115.4375,669.1875 Q116.1719,669.1875 116.8125,669.3594 Q117.4688,669.5156 118.0156,669.875 Z " fill="#000000"/><text fill="#000000" font-family="sans-serif" font-size="14" lengthAdjust="spacing" textLength="37" x="135.75" y="679.7285">Statut</text><line style="stroke:#000000;stroke-width:0.5;" x1="8" x2="268" y1="690" y2="690"/><text fill="#000000" font-family="sans-serif" font-size="14" lengthAdjust="spacing" textLength="98" x="13" y="708.5332">+EstFinal : bool</text><line style="stroke:#000000;stroke-width:0.5;" x1="8" x2="268" y1="715.6094" y2="715.6094"/><text fill="#000000" font-family="sans-serif" font-size="14" lengthAdjust="spacing" textLength="250" x="13" y="734.1426">+Libelle : string (ex: Nouvelle, En cours)</text></g><!--class Commentaire--><g id="elem_Commentaire"><rect codeLine="68" fill="#FFFFFF" height="65.6094" id="Commentaire" rx="2.5" ry="2.5" style="stroke:#000000;stroke-width:0.5;" width="124" x="764" y="666.5"/><ellipse cx="782.6" cy="682.5" fill="#ADD1B2" rx="11" ry="11" style="stroke:#181818;stroke-width:1.0;"/><path d="M785.3656,678.375 Q785.5219,678.1563 785.7094,678.0469 Q785.8969,677.9375 786.1156,677.9375 Q786.4906,677.9375 786.725,678.2031 Q786.9594,678.4531 786.9594,679.0625 L786.9594,680.5156 Q786.9594,681.125 786.725,681.3906 Q786.4906,681.6563 786.1156,681.6563 Q785.7719,681.6563 785.5688,681.4531 Q785.3656,681.2656 785.2563,680.75 Q785.2094,680.3906 785.0219,680.2031 Q784.6938,679.8281 784.0844,679.6094 Q783.475,679.3906 782.85,679.3906 Q782.0844,679.3906 781.4438,679.7188 Q780.8188,680.0469 780.3188,680.7969 Q779.8344,681.5469 779.8344,682.5781 L779.8344,683.6719 Q779.8344,684.9063 780.725,685.7344 Q781.6156,686.5469 783.2094,686.5469 Q784.1469,686.5469 784.8031,686.2969 Q785.1938,686.1406 785.6156,685.7031 Q785.8813,685.4375 786.0219,685.3594 Q786.1781,685.2813 786.3813,685.2813 Q786.7094,685.2813 786.9594,685.5469 Q787.225,685.7969 787.225,686.1406 Q787.225,686.4844 786.8813,686.8906 Q786.3813,687.4688 785.5844,687.7969 Q784.5063,688.25 783.2094,688.25 Q781.6938,688.25 780.4906,687.625 Q779.5063,687.125 778.8188,686.0625 Q778.1313,684.9844 778.1313,683.7031 L778.1313,682.5469 Q778.1313,681.2188 778.7406,680.0781 Q779.3656,678.9219 780.4594,678.3125 Q781.5531,677.6875 782.7875,677.6875 Q783.5219,677.6875 784.1625,677.8594 Q784.8188,678.0156 785.3656,678.375 Z " fill="#000000"/><text fill="#000000" font-family="sans-serif" font-size="14" lengthAdjust="spacing" textLength="84" x="797.4" y="688.2285">Commentaire</text><line style="stroke:#000000;stroke-width:0.5;" x1="765" x2="887" y1="698.5" y2="698.5"/><text fill="#000000" font-family="sans-serif" font-size="14" lengthAdjust="spacing" textLength="112" x="770" y="717.0332">+Message : string</text><line style="stroke:#000000;stroke-width:0.5;" x1="765" x2="887" y1="724.1094" y2="724.1094"/></g><!--class PieceJointe--><g id="elem_PieceJointe"><rect codeLine="72" fill="#FFFFFF" height="100.8281" id="PieceJointe" rx="2.5" ry="2.5" style="stroke:#000000;stroke-width:0.5;" width="158" x="937" y="649"/><ellipse cx="976.3" cy="665" fill="#ADD1B2" rx="11" ry="11" style="stroke:#181818;stroke-width:1.0;"/><path d="M979.0656,660.875 Q979.2219,660.6563 979.4094,660.5469 Q979.5969,660.4375 979.8156,660.4375 Q980.1906,660.4375 980.425,660.7031 Q980.6594,660.9531 980.6594,661.5625 L980.6594,663.0156 Q980.6594,663.625 980.425,663.8906 Q980.1906,664.1563 979.8156,664.1563 Q979.4719,664.1563 979.2688,663.9531 Q979.0656,663.7656 978.9563,663.25 Q978.9094,662.8906 978.7219,662.7031 Q978.3938,662.3281 977.7844,662.1094 Q977.175,661.8906 976.55,661.8906 Q975.7844,661.8906 975.1438,662.2188 Q974.5188,662.5469 974.0188,663.2969 Q973.5344,664.0469 973.5344,665.0781 L973.5344,666.1719 Q973.5344,667.4063 974.425,668.2344 Q975.3156,669.0469 976.9094,669.0469 Q977.8469,669.0469 978.5031,668.7969 Q978.8938,668.6406 979.3156,668.2031 Q979.5813,667.9375 979.7219,667.8594 Q979.8781,667.7813 980.0813,667.7813 Q980.4094,667.7813 980.6594,668.0469 Q980.925,668.2969 980.925,668.6406 Q980.925,668.9844 980.5813,669.3906 Q980.0813,669.9688 979.2844,670.2969 Q978.2063,670.75 976.9094,670.75 Q975.3938,670.75 974.1906,670.125 Q973.2063,669.625 972.5188,668.5625 Q971.8313,667.4844 971.8313,666.2031 L971.8313,665.0469 Q971.8313,663.7188 972.4406,662.5781 Q973.0656,661.4219 974.1594,660.8125 Q975.2531,660.1875 976.4875,660.1875 Q977.2219,660.1875 977.8625,660.3594 Q978.5188,660.5156 979.0656,660.875 Z " fill="#000000"/><text fill="#000000" font-family="sans-serif" font-size="14" lengthAdjust="spacing" textLength="72" x="995.7" y="670.7285">PieceJointe</text><line style="stroke:#000000;stroke-width:0.5;" x1="938" x2="1094" y1="681" y2="681"/><text fill="#000000" font-family="sans-serif" font-size="14" lengthAdjust="spacing" textLength="126" x="943" y="699.5332">+NomFichier : string</text><text fill="#000000" font-family="sans-serif" font-size="14" lengthAdjust="spacing" textLength="146" x="943" y="717.1426">+CheminFichier : string</text><text fill="#000000" font-family="sans-serif" font-size="14" lengthAdjust="spacing" textLength="81" x="943" y="734.752">+Taille : long</text><line style="stroke:#000000;stroke-width:0.5;" x1="938" x2="1094" y1="741.8281" y2="741.8281"/></g><!--reverse link BaseEntity to User--><g id="link_BaseEntity_User"><path codeLine="79" d="M600.4768,133.4087 C608.1568,154.2387 611.08,162.17 619.76,185.75 " fill="none" id="BaseEntity-backto-User" style="stroke:#181818;stroke-width:1.0;"/><polygon fill="none" points="594.25,116.52,594.8473,135.4843,606.1064,131.333,594.25,116.52" style="stroke:#181818;stroke-width:1.0;"/></g><!--reverse link BaseEntity to Projet--><g id="link_BaseEntity_Projet"><path codeLine="80" d="M531.4357,131.3136 C511.3757,160.2536 496.22,182.14 475.23,212.44 " fill="none" id="BaseEntity-backto-Projet" style="stroke:#181818;stroke-width:1.0;"/><polygon fill="none" points="541.69,116.52,526.5045,127.8955,536.3669,134.7317,541.69,116.52" style="stroke:#181818;stroke-width:1.0;"/></g><!--reverse link BaseEntity to Anomalie--><g id="link_BaseEntity_Anomalie"><path codeLine="81" d="M459.7791,97.0723 C409.3691,114.7023 369.12,138.2 337,186 C282.59,266.98 280.32,316.79 322,405 C327.1,415.79 334.05,425.78 342.05,434.93 " fill="none" id="BaseEntity-backto-Anomalie" style="stroke:#181818;stroke-width:1.0;"/><polygon fill="none" points="476.77,91.13,457.7984,91.4086,461.7599,102.7359,476.77,91.13" style="stroke:#181818;stroke-width:1.0;"/></g><!--reverse link BaseEntity to TypeAnomalie--><g id="link_BaseEntity_TypeAnomalie"><path codeLine="82" d="M459.3213,83.8958 C393.6713,98.1758 329.51,124.12 286,186 C175.02,343.86 163.03,448.82 254,619 C260.12,630.45 281.07,645.8 303.73,659.96 " fill="none" id="BaseEntity-backto-TypeAnomalie" style="stroke:#181818;stroke-width:1.0;"/><polygon fill="none" points="476.91,80.07,458.046,78.0329,460.5966,89.7588,476.91,80.07" style="stroke:#181818;stroke-width:1.0;"/></g><!--reverse link BaseEntity to Priorite--><g id="link_BaseEntity_Priorite"><path codeLine="83" d="M690.4,125.7303 C720.17,144.3103 735.57,158.26 758,186 C832.57,278.24 832.3,318.4 854,435 C865.06,494.42 885.61,519.48 854,571 C838.85,595.68 783.95,624.83 729.34,649.03 " fill="none" id="BaseEntity-backto-Priorite" style="stroke:#181818;stroke-width:1.0;"/><polygon fill="none" points="675.13,116.2,687.2233,130.8203,693.5768,120.6403,675.13,116.2" style="stroke:#181818;stroke-width:1.0;"/></g><!--reverse link BaseEntity to Statut--><g id="link_BaseEntity_Statut"><path codeLine="84" d="M458.6945,70.5121 C369.9645,78.0421 261.66,102.51 193,186 C78.33,325.44 110.24,563.4 128.91,658 " fill="none" id="BaseEntity-backto-Statut" style="stroke:#181818;stroke-width:1.0;"/><polygon fill="none" points="476.63,68.99,458.1871,64.5336,459.2018,76.4906,476.63,68.99" style="stroke:#181818;stroke-width:1.0;"/></g><!--reverse link BaseEntity to Commentaire--><g id="link_BaseEntity_Commentaire"><path codeLine="85" d="M691.3542,124.269 C697.3742,127.209 687.18,122.2 693,125 C750.89,152.82 782.96,136.6 824,186 C943.45,329.76 889.75,414.11 892,601 C892.1,609 894.72,611.48 892,619 C885.67,636.55 873.58,652.96 861.47,666.26 " fill="none" id="BaseEntity-backto-Commentaire" style="stroke:#181818;stroke-width:1.0;"/><polygon fill="none" points="675.18,116.37,688.7212,129.6604,693.9872,118.8776,675.18,116.37" style="stroke:#181818;stroke-width:1.0;"/></g><!--reverse link BaseEntity to PieceJointe--><g id="link_BaseEntity_PieceJointe"><path codeLine="86" d="M688.557,123.6949 C695.587,126.7049 686.09,122.46 693,125 C778.22,156.36 828.68,117.24 888,186 C1005.11,321.76 1018,549.05 1017.55,648.9 " fill="none" id="BaseEntity-backto-PieceJointe" style="stroke:#181818;stroke-width:1.0;"/><polygon fill="none" points="672.01,116.61,686.1954,129.2105,690.9187,118.1792,672.01,116.61" style="stroke:#181818;stroke-width:1.0;"/></g><!--link Projet to Anomalie--><g id="link_Projet_Anomalie"><path codeLine="92" d="M355.21,330.65 C335.2,352.52 322.34,378.53 334,405 C338.68,415.62 345.15,425.58 352.61,434.77 " fill="none" id="Projet-Anomalie" style="stroke:#181818;stroke-width:1.0;"/><polygon fill="#000000" points="338.8752,401.1742,342.039,392.2053,336.163,392.0586,338.8752,401.1742" style="stroke:#000000;stroke-width:1.0;"/><text fill="#000000" font-family="sans-serif" font-size="13" lengthAdjust="spacing" textLength="48" x="348" y="401.4951">Contient</text><text fill="#000000" font-family="sans-serif" font-size="13" lengthAdjust="spacing" textLength="7" x="339.6207" y="351.0655">1</text><text fill="#000000" font-family="sans-serif" font-size="13" lengthAdjust="spacing" textLength="5" x="337.7783" y="423.9441">*</text></g><!--link User to Anomalie--><g id="link_User_Anomalie"><path codeLine="95" d="M643.82,357.13 C639.38,374.18 632.52,391.11 622,405 C608.49,422.84 590.72,437.75 571.59,450.1 " fill="none" id="User-Anomalie" style="stroke:#181818;stroke-width:1.0;"/><polygon fill="#000000" points="632.9324,400.1242,640.8025,394.7845,636.1609,391.1784,632.9324,400.1242" style="stroke:#000000;stroke-width:1.0;"/><text fill="#000000" font-family="sans-serif" font-size="13" lengthAdjust="spacing" textLength="136" x="645" y="401.4951">"A d&#233;clar&#233; (CreateurId)"</text><text fill="#000000" font-family="sans-serif" font-size="13" lengthAdjust="spacing" textLength="7" x="635.9022" y="378.6751">1</text><text fill="#000000" font-family="sans-serif" font-size="13" lengthAdjust="spacing" textLength="5" x="579.3421" y="444.0831">*</text></g><!--link User to Anomalie--><g id="link_User_Anomalie"><path codeLine="96" d="M561.4,341.14 C552.06,346.93 542.5,352.34 533,357 C491.35,377.45 460.7,349.77 433,387 C422.85,400.64 420.21,417.9 421.22,434.87 " fill="none" id="User-Anomalie-1" style="stroke:#181818;stroke-width:1.0;"/><polygon fill="#000000" points="433.8435,398.955,442.9962,396.3705,439.7291,391.4843,433.8435,398.955" style="stroke:#000000;stroke-width:1.0;"/><text fill="#000000" font-family="sans-serif" font-size="13" lengthAdjust="spacing" textLength="166" x="447" y="401.4951">"Est assign&#233; &#224; (AssigneeId)"</text><text fill="#000000" font-family="sans-serif" font-size="13" lengthAdjust="spacing" textLength="22" x="531.3834" y="343.5505">0..1</text><text fill="#000000" font-family="sans-serif" font-size="13" lengthAdjust="spacing" textLength="5" x="413.8925" y="424.0551">*</text></g><!--link Anomalie to TypeAnomalie--><g id="link_Anomalie_TypeAnomalie"><path codeLine="99" d="M416.85,571.21 C406.9,600.09 395.6,632.88 386.97,657.95 " fill="none" id="Anomalie-TypeAnomalie" style="stroke:#181818;stroke-width:1.0;"/><polygon fill="#000000" points="410.3715,614.9032,416.0961,607.3084,410.5388,605.3941,410.3715,614.9032" style="stroke:#000000;stroke-width:1.0;"/><text fill="#000000" font-family="sans-serif" font-size="13" lengthAdjust="spacing" textLength="67" x="421" y="615.4951">Est de type</text><text fill="#000000" font-family="sans-serif" font-size="13" lengthAdjust="spacing" textLength="5" x="409.2048" y="592.58">*</text><text fill="#000000" font-family="sans-serif" font-size="13" lengthAdjust="spacing" textLength="7" x="381.7041" y="647.2494">1</text></g><!--link Anomalie to Priorite--><g id="link_Anomalie_Priorite"><path codeLine="100" d="M496.32,571.21 C517.67,596.68 541.58,625.21 561.34,648.79 " fill="none" id="Anomalie-Priorite" style="stroke:#181818;stroke-width:1.0;"/><polygon fill="#000000" points="544.2117,614.0079,540.6541,605.1878,536.1492,608.9633,544.2117,614.0079" style="stroke:#000000;stroke-width:1.0;"/><text fill="#000000" font-family="sans-serif" font-size="13" lengthAdjust="spacing" textLength="77" x="550" y="615.4951">A une priorit&#233;</text><text fill="#000000" font-family="sans-serif" font-size="13" lengthAdjust="spacing" textLength="5" x="496.8702" y="592.58">*</text><text fill="#000000" font-family="sans-serif" font-size="13" lengthAdjust="spacing" textLength="7" x="547.9894" y="638.0658">1</text></g><!--link Anomalie to Statut--><g id="link_Anomalie_Statut"><path codeLine="101" d="M335.65,571.21 C290.81,600.09 239.88,632.88 200.96,657.95 " fill="none" id="Anomalie-Statut" style="stroke:#181818;stroke-width:1.0;"/><polygon fill="#000000" points="289.7963,612.883,298.9921,610.4565,295.8096,605.5147,289.7963,612.883" style="stroke:#000000;stroke-width:1.0;"/><text fill="#000000" font-family="sans-serif" font-size="13" lengthAdjust="spacing" textLength="83" x="303" y="615.4951">Est dans l'&#233;tat</text><text fill="#000000" font-family="sans-serif" font-size="13" lengthAdjust="spacing" textLength="5" x="319.6311" y="592.58">*</text><text fill="#000000" font-family="sans-serif" font-size="13" lengthAdjust="spacing" textLength="7" x="203.8081" y="647.2494">1</text></g><!--reverse link Anomalie to Commentaire--><g id="link_Anomalie_Commentaire"><path codeLine="104" d="M582.5455,574.0293 C616.9955,590.6693 643.38,603.12 678,619 C708.39,632.94 717.42,633.41 747,649 C757.02,654.28 767.47,660.38 777.36,666.44 " fill="none" id="Anomalie-backto-Commentaire" style="stroke:#181818;stroke-width:1.0;"/><polygon fill="#181818" points="571.74,568.81,575.403,575.0215,582.5455,574.0293,578.8825,567.8178,571.74,568.81" style="stroke:#181818;stroke-width:1.0;"/><polygon fill="#000000" points="687.5175,612.3187,680.6048,605.7868,678.0857,611.0975,687.5175,612.3187" style="stroke:#000000;stroke-width:1.0;"/><text fill="#000000" font-family="sans-serif" font-size="13" lengthAdjust="spacing" textLength="51" x="692" y="615.4951">Poss&#232;de</text><text fill="#000000" font-family="sans-serif" font-size="13" lengthAdjust="spacing" textLength="7" x="579.5586" y="569.6561">1</text><text fill="#000000" font-family="sans-serif" font-size="13" lengthAdjust="spacing" textLength="5" x="761.8124" y="655.543">*</text></g><!--reverse link Anomalie to PieceJointe--><g id="link_Anomalie_PieceJointe"><path codeLine="105" d="M583.0421,543.5982 C677.1921,570.6882 794.89,606.86 906,649 C916.08,652.82 926.56,657.11 936.87,661.53 " fill="none" id="Anomalie-backto-PieceJointe" style="stroke:#181818;stroke-width:1.0;"/><polygon fill="#181818" points="571.51,540.28,576.17,545.7831,583.0421,543.5982,578.3821,538.095,571.51,540.28" style="stroke:#181818;stroke-width:1.0;"/><polygon fill="#000000" points="827.7435,611.7568,820.0918,606.1086,818.2332,611.6849,827.7435,611.7568" style="stroke:#000000;stroke-width:1.0;"/><text fill="#000000" font-family="sans-serif" font-size="13" lengthAdjust="spacing" textLength="51" x="832" y="615.4951">Poss&#232;de</text><text fill="#000000" font-family="sans-serif" font-size="13" lengthAdjust="spacing" textLength="7" x="579.3153" y="539.4767">1</text><text fill="#000000" font-family="sans-serif" font-size="13" lengthAdjust="spacing" textLength="5" x="924.0896" y="654.6685">*</text></g><!--link User to Commentaire--><g id="link_User_Commentaire"><path codeLine="108" d="M740.69,326.91 C760.51,343.55 778.89,363.72 790,387 C834.4,480.06 770.87,518.07 792,619 C795.38,635.16 802.14,652.11 808.74,666.19 " fill="none" id="User-Commentaire" style="stroke:#181818;stroke-width:1.0;"/><polygon fill="#000000" points="811.9833,508.0781,813.0861,498.6317,807.323,499.7876,811.9833,508.0781" style="stroke:#000000;stroke-width:1.0;"/><text fill="#000000" font-family="sans-serif" font-size="13" lengthAdjust="spacing" textLength="38" x="820" y="508.4951">A &#233;crit</text><text fill="#000000" font-family="sans-serif" font-size="13" lengthAdjust="spacing" textLength="7" x="748.4073" y="328.3348">1</text><text fill="#000000" font-family="sans-serif" font-size="13" lengthAdjust="spacing" textLength="5" x="799.8498" y="655.6253">*</text></g><!--SRC=[bLNBajf65Dtp5RTOP1XxXhBphA9IIGcXoIW63P54PTr8Dz2sw9vqjrAn4t_0_4MMvZlqOxcjba0WnfMmek_htEUHViV58rDi1rd1jFQCKNnT6WmpAHB-0U7LG9-QJ5dsRgDaAN9V5bB1hrjki6SaLOxA6KmByXWChk3szXPUZs7g9G7uSoz9OEIjjL4iCrmA-0BkgxtYXctmsjeEMADq8M7AD0R2SFCU_Xe0_Lv2cCC4k33DSyOC-WfP7MvIFrE-muvs8NF-6yzw5X_R_BuSGn2j5a7ifU53bDHve2Xt4Ci2LnfLW-tD5c4K9YdP1Qku5iL1iYGNRpeFwdSQ-FTHw8T1L3zNQJWF4sT-WFlAmgLXMZqbi8p3o0-NtZnmi0DNTWVq9KHoHsbJMxZODAAbGj6N1Zl6YtFXGfePBYaetZEzFTVQ2adM5bfBAOscUKZPA5GUOR62u-YwKVXIwB8mgEwvDbBntqkh-zXclrJoBPhFvJz3dId-s4paL4NZcI6ju-LXtl7p6JhCDiS3QigDml-9wnVIbBLN2_3ZQKVyBHCRL8bXfZGZ8Si_a9NkHKxkJziaJsk-4QXIpBQ2Pnp5oD1VihETlZxkmzUTVPW545TFTzLJR4N174O_qNrKUzH0bmPUlkF27OehEtt_YBtIvtoDHV7VYkyCZTCapVDHO8H_Ji0d6pll6rYmjqZDEkv4Zhui2vAT0qVSjgcvsWDWqxRFmqMsnII-WK109akbMxn06ze5PlTzBMLnREStdNOcWVyGpRmmRixB8VjojqDX65V7QXUeDP7GfSPmpF1dIRbZTwNlUBRbsAlLtoADw1bbIlTPbrX8X-0o_dPCF39lo6TqHeWT1lp-RpAkp_HSw2wk9sutewVehis5O6uJUWetiPwuqyv-h6Fpscg_EwcMhaHclEPcxGecivLm33XgzdrJVQ9H5TXIYxu1eZeD6OAuGcteDZIK0k7k3UIKHaQZakk2RvYHz1nJo2LT3ttUY1DkoBAbA2kXmpIGuv52zA3H3byFAICOlXWUwMLYoS_v_61JFPRYns4Q_hAYJLibGNphHGyBRnu6WxgIow667kJLtf9ijOTH_HMZymdpwo45TtwlnkFBhhJ_m6gA8T_gdxgJbc-mSQVSV6Q_f7QTjFluvTJ4AzRE_H3DXhO817J29nDxPDR9a9H2Nd8uqCO4l7e4Zqv0ILrsEB1b7Pi9JIbLUnAwd6VsFo_qixbIY1TDExftF86brBhwb9ycsh7ktl69DQ5wfMsyhjSWEqRLlU6TGdf0qwDYASY_]--></g></svg>